<?xml version="1.0" encoding="utf-8"?>
<!-- Generator: Adobe Illustrator 26.3.1, SVG Export Plug-In . SVG Version: 6.00 Build 0)  -->
<svg version="1.1" id="Capa_1" xmlns="http://www.w3.org/2000/svg" xmlns:xlink="http://www.w3.org/1999/xlink" x="0px" y="0px"
	 viewBox="0 0 43.5 34.8" style="enable-background:new 0 0 43.5 34.8;" xml:space="preserve">
<style type="text/css">
	.st0{fill:#FFFFFF;}
	.st1{fill:#4771B6;}
</style>
<rect x="1.1" class="st0" width="41.3" height="34.7"/>
<g>
	<path class="st1" d="M9.4,7.2C9,7.2,8.7,7.5,8.7,7.9S9,8.6,9.4,8.6s0.7-0.4,0.7-0.7C10.1,7.5,9.8,7.2,9.4,7.2"/>
	<path class="st1" d="M11.7,7.2c-0.4,0-0.7,0.3-0.7,0.7s0.3,0.7,0.7,0.7s0.7-0.3,0.7-0.7S12.1,7.2,11.7,7.2"/>
	<path class="st1" d="M14,7.2c-0.4,0-0.7,0.3-0.7,0.7s0.3,0.7,0.7,0.7s0.7-0.3,0.7-0.7S14.4,7.2,14,7.2"/>
	<path class="st1" d="M29.3,22.9c0.8,0,1.4-0.1,2-0.4s1-0.6,1.3-1.1s0.4-1,0.4-1.6s-0.1-1.1-0.4-1.5c-0.3-0.4-0.7-0.8-1.1-1
		c-0.5-0.2-1-0.4-1.5-0.4c-0.4,0-0.7,0-1,0.1s-0.5,0.2-0.7,0.3l0.2-1.6h3.6c0.1,0,0.2,0,0.2-0.1c0.1-0.1,0.1-0.1,0.1-0.2v-1.3
		c0-0.1,0-0.2-0.1-0.2c-0.1-0.1-0.1-0.1-0.2-0.1H27c-0.1,0-0.2,0-0.3,0.1c-0.1,0.1-0.1,0.2-0.1,0.3l-0.5,4.6c0,0.1,0,0.1,0.1,0.2
		s0.1,0.1,0.2,0.1h1.7c0.1,0,0.2,0,0.3-0.2c0.1-0.1,0.2-0.2,0.4-0.2c0.1-0.1,0.3-0.1,0.5-0.1c0.4,0,0.7,0.1,0.9,0.3
		c0.2,0.2,0.4,0.5,0.4,0.9s-0.1,0.7-0.4,0.9C30,20.9,29.7,21,29.3,21c-0.3,0-0.5-0.1-0.7-0.2s-0.4-0.3-0.5-0.6
		C28,20,27.9,20,27.7,20h-1.8c-0.1,0-0.1,0-0.2,0.1c-0.1,0-0.1,0.1-0.1,0.2c0,0.5,0.2,0.9,0.4,1.3s0.7,0.7,1.2,1
		C27.9,22.8,28.5,22.9,29.3,22.9 M21.2,16.4v2.8h-2L21.2,16.4z M21.4,22.8h1.7c0.1,0,0.2,0,0.2-0.1c0.1-0.1,0.1-0.1,0.1-0.2v-1.4
		h1.1c0.1,0,0.2,0,0.2-0.1s0.1-0.1,0.1-0.2v-1.3c0-0.1,0-0.2-0.1-0.2s-0.1-0.1-0.2-0.1h-1.1v-4.9c0-0.1,0-0.2-0.1-0.2
		C23.2,14,23.2,14,23.1,14h-1.9c-0.2,0-0.3,0.1-0.5,0.2L17,19.1c-0.1,0.1-0.1,0.3-0.1,0.4v1.3c0,0.1,0,0.2,0.1,0.2s0.1,0.1,0.2,0.1
		h3.9v1.4c0,0.1,0,0.2,0.1,0.2S21.3,22.8,21.4,22.8 M12.2,22.4h1.1c0.1,0,0.2,0,0.2-0.1c0.1-0.1,0.1-0.1,0.1-0.2v-2.3h2.2
		c0.1,0,0.2,0,0.2-0.1c0.1-0.1,0.1-0.1,0.1-0.2v-1c0-0.1,0-0.2-0.1-0.2c-0.1-0.1-0.1-0.1-0.2-0.1h-2.2v-2.3c0-0.1,0-0.2-0.1-0.2
		c-0.1-0.1-0.1-0.1-0.2-0.1h-1.1c-0.1,0-0.2,0-0.2,0.1c-0.1,0.1-0.1,0.1-0.1,0.2v2.2H9.7c-0.1,0-0.2,0-0.2,0.1
		c-0.1,0.1-0.1,0.1-0.1,0.2v1c0,0.1,0,0.2,0.1,0.2s0.1,0.1,0.2,0.1h2.2V22c0,0.1,0,0.2,0.1,0.2C12.1,22.3,12.1,22.4,12.2,22.4"/>
	<path class="st1" d="M35.7,9.3h-28V7.4c0-0.6,0.5-1,1.1-1h25.9c0.6,0,1.1,0.5,1.1,1L35.7,9.3L35.7,9.3z M35.7,27.1
		c0,0.6-0.5,1-1.1,1H8.7c-0.6,0-1.1-0.5-1.1-1V10h28L35.7,27.1L35.7,27.1z M34.6,5.7H8.8C7.8,5.7,7,6.5,7,7.5v19.7
		c0,1,0.8,1.8,1.8,1.8h25.9c1,0,1.8-0.8,1.8-1.8V7.5C36.4,6.5,35.6,5.7,34.6,5.7z"/>
</g>
</svg>
