<?xml version="1.0" encoding="utf-8"?>
<!-- Generator: Adobe Illustrator 26.3.1, SVG Export Plug-In . SVG Version: 6.00 Build 0)  -->
<svg version="1.1" id="Capa_1" xmlns="http://www.w3.org/2000/svg" xmlns:xlink="http://www.w3.org/1999/xlink" x="0px" y="0px"
	 viewBox="0 0 280 280" style="enable-background:new 0 0 280 280;" xml:space="preserve">
<style type="text/css">
	.st0{clip-path:url(#SVGID_00000095325582542546574790000010507129042579266202_);fill:#4771B7;}
</style>
<g>
	<defs>
		<rect id="SVGID_1_" x="65.7" y="56" width="148.5" height="168"/>
	</defs>
	<clipPath id="SVGID_00000019643606055570414930000007611455871765030308_">
		<use xlink:href="#SVGID_1_"  style="overflow:visible;"/>
	</clipPath>
	<path style="clip-path:url(#SVGID_00000019643606055570414930000007611455871765030308_);fill:#4771B7;" d="M168.4,102.9
		c-7.3-7.3-17.3-11.8-28.4-11.8s-21.1,4.5-28.4,11.8c-7.3,7.3-11.8,17.3-11.8,28.4c0,18.8,7.4,24.3,14.1,29.2
		c5.3,3.9,10.3,7.6,12.5,15.6c0.4,1.4,1.2,2.6,2.2,3.4c1.3,0.9,2.5,1.4,4.1,1.4h14.5c1.5,0,2.9-0.4,4-1.3c1.1-0.8,1.9-2.1,2.4-3.5
		c2.2-8,7.2-11.7,12.5-15.6c6.7-5,14.1-10.4,14.1-29.2C180.2,120.2,175.7,110.2,168.4,102.9 M151.4,200.1c-2.1,0-3.7-1.7-3.7-3.7
		c0-2.1,1.7-3.7,3.8-3.7c0.5,0,1.1-0.2,1.4-0.6c0.4-0.4,0.6-0.9,0.6-1.5s-0.2-1.1-0.6-1.5c-0.4-0.4-0.9-0.6-1.5-0.6h-22.7
		c-0.6,0-1.1,0.2-1.5,0.6c-0.4,0.4-0.6,0.9-0.6,1.5c0,0.6,0.2,1.1,0.6,1.5c0.4,0.4,0.9,0.6,1.5,0.6h11.6c2.1,0,3.7,1.7,3.7,3.7
		c0,2.1-1.7,3.7-3.7,3.7h-11.6c-0.6,0-1.1,0.2-1.4,0.6c-0.4,0.4-0.6,0.9-0.6,1.5c0,0.6,0.2,1.1,0.6,1.5c0.4,0.4,0.9,0.6,1.5,0.6
		h22.7c0.6,0,1.1-0.2,1.5-0.6c0.4-0.4,0.6-0.9,0.6-1.5s-0.2-1.1-0.6-1.5C152.5,200.3,151.9,200.1,151.4,200.1 M146.3,211.7h-12.6
		c0.3,1.1,0.8,2,1.5,2.8c1.4,1.3,2.8,2.1,4.8,2.1c1.8,0,3.4-0.7,4.6-1.9C145.4,213.8,146,212.8,146.3,211.7 M79.6,127.6
		c2.1,0,3.7,1.7,3.7,3.7c0,2.1-1.7,3.7-3.7,3.7H69.5c-2.1,0-3.7-1.7-3.7-3.7c0-2.1,1.7-3.7,3.7-3.7H79.6z M210.5,125.4
		c2.1,0,3.7,1.7,3.7,3.7s-1.7,3.7-3.7,3.7h-10.1c-2.1,0-3.7-1.7-3.7-3.7s1.7-3.7,3.7-3.7H210.5z M95.4,171.1c1.4-1.5,3.8-1.5,5.3,0
		c1.5,1.4,1.5,3.8,0,5.3l-7.1,7.1c-1.4,1.5-3.8,1.5-5.3,0c-1.5-1.4-1.5-3.8,0-5.3L95.4,171.1z M186.5,77c1.5-1.5,3.8-1.5,5.3,0
		c1.5,1.5,1.5,3.8,0,5.3l-7.1,7.1c-1.5,1.5-3.8,1.5-5.3,0c-1.5-1.5-1.5-3.8,0-5.3L186.5,77z M179.3,176.4c-1.4-1.5-1.4-3.8,0-5.3
		c1.5-1.4,3.8-1.4,5.3,0l7.1,7.1c1.4,1.5,1.4,3.8,0,5.3c-1.5,1.4-3.8,1.4-5.3,0L179.3,176.4z M88.3,82.3c-1.5-1.5-1.5-3.8,0-5.3
		c1.5-1.5,3.8-1.5,5.3,0l7.1,7.1c1.5,1.5,1.5,3.8,0,5.3c-1.5,1.5-3.8,1.5-5.3,0L88.3,82.3z M137.3,59.7c0-2.1,1.7-3.7,3.7-3.7
		c2.1,0,3.7,1.7,3.7,3.7v10.1c0,2.1-1.7,3.7-3.7,3.7c-2.1,0-3.7-1.7-3.7-3.7V59.7z M154.2,147.9c0,2.1-1.7,3.7-3.7,3.7
		c-2.1,0-3.7-1.7-3.7-3.7c0-0.4-0.2-0.8-0.4-1.1c-0.3-0.3-0.6-0.4-1.1-0.4c-0.4,0-0.8,0.2-1.1,0.4c-0.3,0.3-0.4,0.6-0.4,1.1v24
		c0,2.1-1.7,3.7-3.7,3.7c-2.1,0-3.7-1.7-3.7-3.7v-24c0-0.4-0.2-0.8-0.4-1.1c-0.3-0.3-0.6-0.4-1.1-0.4c-0.4,0-0.8,0.2-1.1,0.4
		c-0.3,0.3-0.4,0.6-0.4,1.1c0,2.1-1.7,3.7-3.7,3.7c-2.1,0-3.7-1.7-3.7-3.7c0-2.3,0.9-4.5,2.4-6.1c1.7-1.8,4.1-2.9,6.6-2.9
		c1.9,0,3.8,0.6,5.2,1.7c1.5-1.1,3.3-1.7,5.2-1.7c2.5,0,4.7,1,6.3,2.6C153.2,143.2,154.2,145.5,154.2,147.9 M140,83.7
		c13.1,0,25.1,5.3,33.7,14c8.6,8.6,14,20.5,14,33.7c0,22.6-9,29.2-17.2,35.2c-4.2,3.1-8.2,6-9.7,11.5c-0.6,2.1-1.6,3.9-2.9,5.4
		l0.2,0.2c1.7,1.7,2.8,4.1,2.8,6.7c0,2.2-0.7,4.2-2,5.8c1.2,1.6,2,3.6,2,5.8c0,2.6-1.1,5-2.8,6.7c-1.1,1.1-2.6,2-4.2,2.5
		c-0.3,3.3-1.8,6.3-4,8.6c-2.5,2.5-6,4.1-9.9,4.1c-3.7,0-7.5-1.6-10.1-4.3c-2.1-2.2-3.5-5.1-3.8-8.3c-1.6-0.4-3-1.3-4.2-2.5
		c-1.7-1.7-2.8-4.1-2.8-6.7c0-2.2,0.7-4.2,2-5.8c-1.2-1.6-2-3.6-2-5.8c0-2.6,1.1-5,2.8-6.7l0.2-0.2c-1.3-1.5-2.3-3.4-2.9-5.4
		c-1.5-5.5-5.5-8.4-9.7-11.5c-8.2-6-17.2-12.7-17.2-35.2c0-13.1,5.3-25.1,14-33.7C115,89,126.9,83.7,140,83.7z"/>
</g>
</svg>
