<?xml version="1.0" encoding="utf-8"?>
<!-- Generator: Adobe Illustrator 26.3.1, SVG Export Plug-In . SVG Version: 6.00 Build 0)  -->
<svg version="1.1" id="Capa_1" xmlns="http://www.w3.org/2000/svg" xmlns:xlink="http://www.w3.org/1999/xlink" x="0px" y="0px"
	 viewBox="0 0 280 280" style="enable-background:new 0 0 280 280;" xml:space="preserve">
<style type="text/css">
	.st0{clip-path:url(#SVGID_00000137838470853201747970000003958696120785028262_);fill:#4771B7;}
</style>
<g>
	<defs>
		<rect id="SVGID_1_" x="84.3" y="56" width="111.4" height="168"/>
	</defs>
	<clipPath id="SVGID_00000062174620244683370610000015948737714193887883_">
		<use xlink:href="#SVGID_1_"  style="overflow:visible;"/>
	</clipPath>
	<path style="clip-path:url(#SVGID_00000062174620244683370610000015948737714193887883_);fill:#4771B7;" d="M160.8,93
		c-5.3-5.3-12.6-8.6-20.8-8.6c-8,0-15.3,3.2-20.6,8.4c-5.6,6-8.8,12.5-8.8,20.9c0,8.1,3.3,15.5,8.6,20.8c5.3,5.3,12.7,8.6,20.8,8.6
		c8.1,0,15.5-3.3,20.8-8.6c5.3-5.3,8.6-12.7,8.6-20.8C169.3,105.6,166.1,98.3,160.8,93 M147.6,67.2l-1.3-1.3c-1.7-1.7-4-2.5-6.2-2.5
		c-2.3,0-4.5,0.8-6.2,2.5l-1.3,1.3c-1.9,1.8-4,3.1-6.3,3.8c-2.3,0.7-4.8,1-7.3,0.6l-1.8-0.2c-2.4-0.3-4.7,0.3-6.5,1.6
		c-1.8,1.3-3.2,3.3-3.6,5.7l-0.3,1.8c-0.4,2.4-1.3,4.6-2.7,6.5l-0.2,0.3c-1.4,2-3.3,3.6-5.6,4.8L96.5,93c-2.1,1.1-3.6,2.9-4.3,5
		l0,0.2c-0.7,2.1-0.6,4.5,0.5,6.7l0.8,1.6c1.1,2.3,1.7,4.8,1.7,7.2c0,2.4-0.6,4.8-1.7,7.2l-0.8,1.6c-1.1,2.2-1.1,4.6-0.5,6.7
		c0.7,2.1,2.2,4,4.3,5.2l1.6,0.9c2.3,1.2,4.2,2.8,5.6,4.8c1.4,2,2.4,4.2,2.8,6.8l0.3,1.8c0.4,2.4,1.8,4.4,3.6,5.7
		c1.8,1.3,4.1,2,6.5,1.7l1.8-0.2c2.6-0.3,5-0.1,7.3,0.6c2.3,0.7,4.4,2,6.3,3.8l1.3,1.3c1.7,1.7,4,2.5,6.2,2.5c2.3,0,4.5-0.8,6.3-2.5
		l1.3-1.3c1.9-1.8,4-3.1,6.3-3.8c2.3-0.7,4.8-1,7.3-0.6l1.8,0.2c2.4,0.3,4.7-0.3,6.5-1.6c1.8-1.3,3.2-3.3,3.6-5.7
		c0.6-3.2,1.1-5.6,3-8.3c1.4-2.1,3.5-3.9,5.8-5.1l1.6-0.9c2.1-1.1,3.6-2.9,4.3-5l0-0.2c0.7-2.1,0.6-4.5-0.5-6.7l-0.8-1.6
		c-1.1-2.3-1.7-4.8-1.7-7.2c0-2.4,0.6-4.8,1.7-7.2l0.8-1.6c1-2.2,1.1-4.6,0.5-6.7c-0.7-2.1-2.2-4-4.3-5.2l-1.6-0.9
		c-2.3-1.2-4.2-2.8-5.6-4.8c-1.4-2-2.4-4.2-2.8-6.8l-0.3-1.8c-0.4-2.4-1.8-4.4-3.6-5.7c-1.8-1.3-4.1-2-6.5-1.7l-1.8,0.2
		c-2.6,0.3-5,0.1-7.3-0.6C151.6,70.3,149.4,69,147.6,67.2z M140.4,171.5l14.3,39.9l6.9-12.2c0.8-1.7,2.8-2.6,4.6-1.9l14.7,5
		l-13.7-38.9c-1.7,0.3-3.4,0.3-5.2,0.1l-1.8-0.2c-1.4-0.2-2.8-0.1-4,0.3c-1.2,0.4-2.4,1.1-3.4,2.1l-1.3,1.3
		C148.3,169.8,144.4,171.4,140.4,171.5z M140.1,192.6l-10.6,29c-0.3,0.8-0.9,1.5-1.7,2c-1.8,1-4.1,0.4-5.1-1.4l-9.5-16.8l-19.1,6.5
		c-0.8,0.3-1.6,0.3-2.5,0c-1.9-0.7-2.9-2.8-2.2-4.8l16.7-46.5l-0.2-0.1c-3.3-2.4-5.7-6.1-6.5-10.4l-0.3-1.8
		c-0.3-1.4-0.8-2.7-1.6-3.7c-0.8-1.1-1.8-1.9-3.1-2.6L93,141c-3.9-2.1-6.6-5.5-7.9-9.4c-1.3-3.9-1.1-8.3,0.8-12.3l0.8-1.6
		c0.6-1.3,0.9-2.6,0.9-3.9c0-1.3-0.3-2.6-0.9-3.9l-0.8-1.6c-1.9-4-2.1-8.4-0.8-12.3l0.1-0.2c1.3-3.8,4-7.2,7.8-9.2l1.6-0.9
		c1.3-0.7,2.3-1.6,3.1-2.6l0.1-0.2c0.7-1,1.2-2.2,1.4-3.5l0.3-1.8c0.8-4.4,3.2-8,6.5-10.4c3.3-2.4,7.5-3.6,11.9-3l1.8,0.2
		c1.4,0.2,2.8,0.1,4-0.3c1.2-0.4,2.4-1.1,3.4-2.1l1.3-1.3c3.2-3.1,7.3-4.6,11.4-4.6c4.1,0,8.2,1.5,11.4,4.6l1.3,1.3
		c1,1,2.2,1.7,3.4,2.1c1.2,0.4,2.6,0.5,4,0.3L162,64c4.4-0.6,8.6,0.6,11.9,3c3.3,2.4,5.7,6.1,6.5,10.4l0.3,1.8
		c0.3,1.4,0.8,2.7,1.6,3.7c0.8,1.1,1.8,1.9,3.1,2.6l1.6,0.9c3.9,2.1,6.6,5.5,7.9,9.4c1.3,3.9,1.1,8.3-0.8,12.3l-0.8,1.6
		c-0.6,1.3-0.9,2.6-0.9,3.9c0,1.3,0.3,2.6,0.9,3.9l0.8,1.6c1.9,4,2.1,8.4,0.8,12.3l-0.1,0.2c-1.3,3.8-4,7.2-7.8,9.2l-1.6,0.9
		c-1.3,0.7-2.3,1.6-3.1,2.6l-0.1,0.2c-0.7,1-1.2,2.2-1.4,3.5l-0.3,1.8c-0.8,4.3-3.2,7.9-6.4,10.3l16.4,46.7c0.7,1.9-0.3,4.1-2.3,4.8
		c-0.8,0.3-1.7,0.3-2.4,0l-19.1-6.5l-9.5,16.8c-1,1.8-3.3,2.4-5.1,1.4c-0.8-0.5-1.4-1.2-1.7-2L140.1,192.6z M113.1,163.4l-13.9,38.9
		l14.7-5c1.8-0.6,3.8,0.2,4.6,1.9l6.9,12.2l10.9-29.8l-4.3-12.1l-0.1-0.3c-1.1-0.6-2.2-1.4-3.1-2.4l-1.3-1.3c-1-1-2.2-1.7-3.4-2.1
		c-1.2-0.4-2.6-0.5-4-0.3l-1.8,0.2C116.3,163.7,114.7,163.6,113.1,163.4 M140,76.9c10.1,0,19.4,4.1,26,10.8
		c6.7,6.7,10.8,15.9,10.8,26c0,10.1-4.1,19.4-10.8,26c-7.7,7-15.4,10.8-26,10.8c-10.1,0-19.4-4.1-26-10.8c-7-7.7-10.8-15.4-10.8-26
		c0-10.2,4.1-19.4,10.8-26C121.5,80.8,129.6,76.9,140,76.9"/>
</g>
</svg>
