<?xml version="1.0" encoding="utf-8"?>
<!-- Generator: Adobe Illustrator 26.3.1, SVG Export Plug-In . SVG Version: 6.00 Build 0)  -->
<svg version="1.1" id="Capa_1" xmlns="http://www.w3.org/2000/svg" xmlns:xlink="http://www.w3.org/1999/xlink" x="0px" y="0px"
	 viewBox="0 0 280 280" style="enable-background:new 0 0 280 280;" xml:space="preserve">
<style type="text/css">
	.st0{clip-path:url(#SVGID_00000016784449117226047430000010437143428691434938_);fill:#4771B7;}
</style>
<g>
	<defs>
		<rect id="SVGID_1_" x="55.5" y="55.5" width="169" height="169"/>
	</defs>
	<clipPath id="SVGID_00000116204891504106431110000012720550975966434195_">
		<use xlink:href="#SVGID_1_"  style="overflow:visible;"/>
	</clipPath>
	<path style="clip-path:url(#SVGID_00000116204891504106431110000012720550975966434195_);fill:#4771B7;" d="M219,169.2H92V107
		c0-1.3,1.1-2.4,2.4-2.4h122.2c1.4,0,2.4,1.1,2.4,2.4V169.2z M219,184.6c0,1.4-1.1,2.4-2.4,2.4H94.4c-1.4,0-2.4-1.1-2.4-2.4v-9.9
		H219V184.6z M144.1,206.5l3.4-14h16l3.4,14H144.1z M175.5,212c4.1,0,7.4,3.1,7.9,7.1h-55.7c0.4-4,3.8-7.1,7.9-7.1H175.5z M86.5,107
		v5.9C70.6,111,61,105.7,61,101.6v-20c7.9,5.6,23.2,8.6,37.9,8.6c14.7,0,30-3,37.9-8.6v17.4H94.4C90.1,99.1,86.5,102.6,86.5,107
		 M86.5,125.8c-5.3-0.5-10.3-1.4-14.8-2.7c-0.8-0.2-1.7-0.1-2.4,0.5c-0.7,0.5-1.1,1.3-1.1,2.2v16.1c0,1,0.5,1.9,1.4,2.4
		c1.5,0.8,6.7,3.3,16.8,4.6v7.4C70.6,154.4,61,149.1,61,145v-34.5c6,4.3,16.1,6.8,25.6,7.9V125.8z M86.5,143.4
		c-6.6-0.9-10.7-2.3-12.8-3.2v-10.9c4,0.9,8.3,1.6,12.8,2V143.4z M61,72.9c0-5,14.4-11.9,37.9-11.9c23.5,0,37.9,7,37.9,11.9v0h0
		c0,5-14.4,11.9-37.9,11.9C75.4,84.8,61,77.9,61,72.9L61,72.9z M216.6,99.1h-74.4V72.9c0-11.3-22.3-17.4-43.3-17.4
		c-21,0-43.3,6.1-43.3,17.4V145c0,9.8,16.2,15,31,16.7v22.9c0,4.4,3.5,7.9,7.9,7.9h47.5l-3.4,14h-2.9c-7.4,0-13.4,6-13.4,13.4
		c0,2.5,2.1,4.6,4.6,4.6h57.5c2.5,0,4.6-2.1,4.6-4.6c0-7.4-6-13.4-13.4-13.4h-2.9l-3.4-14h47.5c4.4,0,7.9-3.5,7.9-7.9V107
		C224.5,102.6,221,99.1,216.6,99.1"/>
	<path style="clip-path:url(#SVGID_00000116204891504106431110000012720550975966434195_);fill:#4771B7;" d="M184.6,183.6h4.1
		c1.5,0,2.7-1.2,2.7-2.7c0-1.5-1.2-2.7-2.7-2.7h-4.1c-1.5,0-2.7,1.2-2.7,2.7C181.9,182.4,183.1,183.6,184.6,183.6"/>
	<path style="clip-path:url(#SVGID_00000116204891504106431110000012720550975966434195_);fill:#4771B7;" d="M199.9,183.6h4.1
		c1.5,0,2.7-1.2,2.7-2.7c0-1.5-1.2-2.7-2.7-2.7h-4.1c-1.5,0-2.7,1.2-2.7,2.7C197.2,182.4,198.4,183.6,199.9,183.6"/>
	<path style="clip-path:url(#SVGID_00000116204891504106431110000012720550975966434195_);fill:#4771B7;" d="M124.8,157.2
		c-11.2,0-20.3-9.1-20.3-20.3c0-3.1,0.7-6.1,2-8.9l5.8,5.8c-0.2,1-0.4,2-0.4,3c0,7.1,5.7,12.8,12.8,12.8c4.5,0,8.7-2.4,10.9-6.2h8.2
		C141.2,151.6,133.6,157.2,124.8,157.2 M147.5,138.1h-13.4c-1.1,0-2.1,0.7-2.5,1.7c-1.1,2.7-3.8,4.5-6.8,4.5c-4,0-7.3-3.3-7.3-7.4
		c0-1,0.2-1.9,0.5-2.8c0.4-1,0.2-2.2-0.6-3l-9.5-9.5c-0.6-0.6-1.4-0.8-2.2-0.8c-0.8,0.1-1.5,0.5-2,1.1c-3.1,4.4-4.7,9.5-4.7,14.8
		c0,14.2,11.5,25.7,25.7,25.7c12.6,0,23.2-9,25.3-21.4c0.1-0.8-0.1-1.6-0.6-2.2C149,138.4,148.3,138.1,147.5,138.1"/>
	<path style="clip-path:url(#SVGID_00000116204891504106431110000012720550975966434195_);fill:#4771B7;" d="M135.7,130.3
		c-2.3-3.8-6.4-6.2-10.9-6.2c-1,0-2.1,0.1-3,0.4l-5.8-5.8c2.7-1.3,5.7-2,8.9-2c8.8,0,16.4,5.6,19.2,13.6H135.7z M124.8,111.2
		c-5.3,0-10.5,1.6-14.8,4.7c-0.7,0.5-1.1,1.2-1.1,2c-0.1,0.8,0.2,1.6,0.8,2.2l9.4,9.4c0.8,0.8,1.9,1,2.9,0.6
		c0.9-0.4,1.8-0.5,2.8-0.5c3,0,5.6,1.8,6.8,4.5c0.4,1,1.4,1.7,2.5,1.7h13.4c0.8,0,1.6-0.4,2.1-1c0.5-0.6,0.7-1.4,0.6-2.2
		C148,120.1,137.4,111.2,124.8,111.2"/>
	<path style="clip-path:url(#SVGID_00000116204891504106431110000012720550975966434195_);fill:#4771B7;" d="M163.9,157.2h-6v-7h6
		V157.2z M166.6,144.8h-11.5c-1.5,0-2.7,1.2-2.7,2.7v12.4c0,1.5,1.2,2.7,2.7,2.7h11.5c1.5,0,2.7-1.2,2.7-2.7v-12.4
		C169.3,146,168.1,144.8,166.6,144.8"/>
	<path style="clip-path:url(#SVGID_00000116204891504106431110000012720550975966434195_);fill:#4771B7;" d="M185.2,157.2h-6v-23.8
		h6V157.2z M187.9,128h-11.5c-1.5,0-2.7,1.2-2.7,2.7v29.2c0,1.5,1.2,2.7,2.7,2.7h11.5c1.5,0,2.7-1.2,2.7-2.7v-29.2
		C190.6,129.2,189.4,128,187.9,128"/>
	<path style="clip-path:url(#SVGID_00000116204891504106431110000012720550975966434195_);fill:#4771B7;" d="M206.5,157.2h-6v-40.6
		h6V157.2z M209.2,111.2h-11.5c-1.5,0-2.7,1.2-2.7,2.7v46c0,1.5,1.2,2.7,2.7,2.7h11.5c1.5,0,2.7-1.2,2.7-2.7v-46
		C211.9,112.4,210.7,111.2,209.2,111.2"/>
	<path style="clip-path:url(#SVGID_00000116204891504106431110000012720550975966434195_);fill:#4771B7;" d="M182.2,87.4
		c1.5,0,2.7-1.2,2.7-2.7V72.9c0-1.5-1.2-2.7-2.7-2.7s-2.7,1.2-2.7,2.7v11.8C179.4,86.2,180.7,87.4,182.2,87.4"/>
	<path style="clip-path:url(#SVGID_00000116204891504106431110000012720550975966434195_);fill:#4771B7;" d="M163.5,93.6
		c0.5,0.5,1.2,0.8,1.9,0.8c0.7,0,1.4-0.3,1.9-0.8c1.1-1.1,1.1-2.8,0-3.9l-8.4-8.4c-1.1-1.1-2.8-1.1-3.9,0c-1.1,1.1-1.1,2.8,0,3.9
		L163.5,93.6z"/>
	<path style="clip-path:url(#SVGID_00000116204891504106431110000012720550975966434195_);fill:#4771B7;" d="M198.9,94.4
		c0.7,0,1.4-0.3,1.9-0.8l8.4-8.4c1.1-1.1,1.1-2.8,0-3.9c-1.1-1.1-2.8-1.1-3.9,0l-8.4,8.4c-1.1,1.1-1.1,2.8,0,3.9
		C197.5,94.1,198.2,94.4,198.9,94.4"/>
</g>
</svg>
