<?xml version="1.0" encoding="utf-8"?>
<!-- Generator: Adobe Illustrator 26.3.1, SVG Export Plug-In . SVG Version: 6.00 Build 0)  -->
<svg version="1.1" id="Capa_1" xmlns="http://www.w3.org/2000/svg" xmlns:xlink="http://www.w3.org/1999/xlink" x="0px" y="0px"
	 viewBox="0 0 280 280" style="enable-background:new 0 0 280 280;" xml:space="preserve">
<style type="text/css">
	.st0{clip-path:url(#SVGID_00000147220979515224911320000014690159182064219816_);fill:#4771B7;}
</style>
<g>
	<defs>
		<rect id="SVGID_1_" x="56" y="63.9" width="168" height="152.2"/>
	</defs>
	<clipPath id="SVGID_00000088098348233548947110000016722075183708111495_">
		<use xlink:href="#SVGID_1_"  style="overflow:visible;"/>
	</clipPath>
	<path style="clip-path:url(#SVGID_00000088098348233548947110000016722075183708111495_);fill:#4771B7;" d="M136.7,208.6
		c0.4,0,0.8,0,1.1-0.2c0.4-0.1,0.6-0.3,0.9-0.6l-6.4-67.1c-0.1-1.1-0.9-2.2-2.1-3c-1.5-1-3.5-1.7-5.8-1.7H77.8
		c-2.3,0-4.4,0.6-5.8,1.7c-1.2,0.8-2,1.9-2.1,3.1l-6.3,67c0.3,0.3,0.5,0.4,0.9,0.6c0.3,0.1,0.7,0.2,1.2,0.2H136.7z M88.9,155.3
		c0.1,0.3,0.2,0.5,0.4,0.8c1.1,2.1,2.7,3.8,4.8,5.1c2,1.2,4.4,1.9,6.7,1.9c2.3,0,4.7-0.6,6.7-1.9c2.1-1.2,3.7-3,4.8-5.1
		c0.1-0.2,0.3-0.5,0.4-0.8c-0.8-0.4-1.6-0.9-2.2-1.5c-1.3-1.3-2.1-3.1-2.1-5c0-1.9,0.8-3.7,2.1-5c1.3-1.3,3.1-2.1,5-2.1
		c1.9,0,3.7,0.8,5,2.1c1.3,1.3,2.1,3,2.1,5c0,1.6-0.6,3.1-1.5,4.3c-0.3,2.2-1.1,4.4-2.1,6.3c-1.7,3.2-4.3,6-7.5,8
		c-3.3,2-6.9,3-10.6,3c-3.6,0-7.3-1-10.6-3c-3.2-2-5.8-4.8-7.5-8c-1-2-1.7-4.1-2.1-6.3c-0.9-1.2-1.5-2.7-1.5-4.4
		c0-1.9,0.8-3.7,2.1-5c1.3-1.3,3-2.1,5-2.1c1.9,0,3.7,0.8,5,2.1c1.3,1.3,2.1,3.1,2.1,5c0,1.9-0.8,3.7-2.1,5
		C90.5,154.5,89.7,155,88.9,155.3L88.9,155.3z M143.3,107.3v-7h-4.4c-1.3,0-2.4,0.6-3.2,1.5c-1.2,1.3-2.1,3.3-2.5,5.5l-3.8,21.9
		c1.9,0.5,3.7,1.3,5.2,2.4c2.9,2,4.9,5,5.2,8.4l6.4,67.3c0,0.4,0,0.9,0,1.3h68.4c0.2,0,0.4,0,0.6-0.1c0.2-0.1,0.4-0.3,0.7-0.6
		c0.2-0.3,0.4-0.6,0.5-0.9c0.1-0.5,0.2-0.8,0.2-1.3l-10.8-98.5c-0.2-2.1-1-3.9-2.2-5.2c-0.9-1-2.2-1.6-3.5-1.6h-3.5l0,7
		c0.5,0.3,0.9,0.6,1.2,1c1.3,1.3,2.1,3.1,2.1,5c0,1.9-0.8,3.7-2.1,5c-1.3,1.3-3.1,2.1-5,2.1c-1.9,0-3.7-0.8-5-2.1
		c-1.3-1.3-2.1-3.1-2.1-5c0-1.9,0.8-3.7,2.1-5c0.4-0.4,0.8-0.7,1.3-1l0-7h-38.3v7c0.5,0.3,0.9,0.6,1.2,1c1.3,1.3,2.1,3.1,2.1,5
		c0,1.9-0.8,3.7-2.1,5c-1.3,1.3-3.1,2.1-5,2.1c-1.9,0-3.7-0.8-5-2.1c-1.3-1.3-2.1-3.1-2.1-5c0-1.9,0.8-3.7,2.1-5
		C142.4,108,142.8,107.6,143.3,107.3z M150.7,92.9H189v-1.1c0.2-3.6-0.6-7.1-2.1-10.1c-1.6-3.1-4-5.7-7.1-7.5
		c-3-1.8-6.5-2.8-9.9-2.8c-3.5,0-6.9,0.9-9.9,2.8c-3,1.8-5.5,4.5-7.1,7.5c-1.6,3-2.3,6.4-2.2,9.9l0,0.5V92.9z M121.9,128.7l3.9-22.5
		c0.6-3.6,2.1-6.9,4.3-9.3c2.3-2.5,5.2-4,8.7-4h4.4v-0.9c-0.3-4.8,0.8-9.6,3-13.7c2.2-4.2,5.6-7.9,9.8-10.4c4.3-2.6,9-3.9,13.8-3.9
		c4.8,0,9.5,1.3,13.8,3.9c4.2,2.6,7.6,6.2,9.8,10.4c2.2,4.2,3.3,8.9,3,13.8v0.9h3.5c3.5,0,6.6,1.5,9,4.1c2.2,2.4,3.7,5.7,4.1,9.4
		l10.8,98.6c0.2,1.4,0,2.8-0.4,4.1c-0.5,1.4-1,2.4-1.9,3.6c-0.9,1.1-1.9,2-3.1,2.6c-1.2,0.6-2.6,0.9-3.9,0.9h-149
		c-1.2,0-2.4-0.2-3.5-0.5c-1.1-0.4-2.2-0.9-3.1-1.7c-0.9-0.7-1.6-1.6-2.1-2.6c-0.7-1.3-0.9-2.6-0.8-4l6.4-67.1
		c0.3-3.4,2.3-6.4,5.3-8.5c2.7-1.9,6.3-3,10.1-3H121.9z"/>
</g>
</svg>
