<?xml version="1.0" encoding="utf-8"?>
<!-- Generator: Adobe Illustrator 26.3.1, SVG Export Plug-In . SVG Version: 6.00 Build 0)  -->
<svg version="1.1" id="Capa_1" xmlns="http://www.w3.org/2000/svg" xmlns:xlink="http://www.w3.org/1999/xlink" x="0px" y="0px"
	 viewBox="0 0 280 280" style="enable-background:new 0 0 280 280;" xml:space="preserve">
<style type="text/css">
	.st0{clip-path:url(#SVGID_00000051343459627731586210000013660889410005926582_);fill:#4771B7;}
</style>
<g>
	<defs>
		<rect id="SVGID_1_" x="56" y="56" width="168" height="168"/>
	</defs>
	<clipPath id="SVGID_00000049909355903388360170000015619241360053066174_">
		<use xlink:href="#SVGID_1_"  style="overflow:visible;"/>
	</clipPath>
	<path style="clip-path:url(#SVGID_00000049909355903388360170000015619241360053066174_);fill:#4771B7;" d="M169.8,69.5
		c-1.9-0.8-2.8-3-2-4.9c0.8-1.9,3-2.8,4.9-2l0.4,0.2c1.9,0.8,2.8,3,2,4.9c-0.8,1.9-3,2.8-4.9,2L169.8,69.5z M72.8,164.5
		c-6.8-18.6-5.4-38.1,2.4-54.7c7.7-16.6,21.8-30.2,40.4-37c18.6-6.8,38.1-5.4,54.7,2.4c16.6,7.7,30.2,21.8,37,40.4
		c6.5,17.8,5.7,37.4-2.4,54.7c-7.7,16.4-21.5,29.9-39.8,36.8l-0.5,0.2h0l-0.6,0.2c-18.4,6.5-37.7,5.1-54.1-2.6
		C92.6,196.8,79.3,182.3,72.8,164.5L72.8,164.5z M124.3,195.2c-2,1.7-3.9,3.4-5.7,5.2c5.7,2,11.8,3.3,17.9,3.6
		c-3.2-1.7-6.3-3.8-9.3-6.3C126.2,196.9,125.3,196,124.3,195.2 M150.5,179.8c-6.4,2.6-12.3,5.6-17.6,9c-0.9,0.6-1.8,1.2-2.6,1.8
		c0.5,0.5,1.1,0.9,1.6,1.3c8.8,7.1,18.1,10.7,26.4,9.2L150.5,179.8L150.5,179.8z M179.9,172.5c-1,0.1-2.1,0.2-3.1,0.3
		c-6.2,0.8-12.7,2.2-19.2,4.4l7.8,21.4c7.3-4.3,12.1-12.9,14.3-24C179.7,173.9,179.8,173.2,179.9,172.5L179.9,172.5z M195.2,172.5
		c-2.5-0.2-5.1-0.4-7.7-0.3c-0.2,1.3-0.4,2.6-0.6,3.8c-0.7,3.9-1.8,7.5-3.1,10.8C188.3,182.6,192.1,177.7,195.2,172.5L195.2,172.5z
		 M188.1,164.7c3.7,0,7.3,0.2,10.7,0.7c5.5-12.8,6.9-27.4,3.2-41.7l-18.6,6.8C187,142.4,188.5,154.1,188.1,164.7L188.1,164.7z
		 M155,170.2c7.1-2.3,14.1-3.9,20.9-4.8c1.6-0.2,3.2-0.4,4.8-0.5c0.5-9.8-0.9-20.7-4.3-31.9l-30.8,11.2L155,170.2L155,170.2z
		 M124.9,185.3c1.3-0.9,2.6-1.8,4-2.7c5.7-3.7,12.1-7,19-9.8l-9.4-26l-30.8,11.2C112.3,168.8,118.3,178.1,124.9,185.3L124.9,185.3z
		 M111.3,197.3c2.3-2.5,4.9-5,7.7-7.4c-7.1-7.8-13.5-17.8-18.3-29.3l-18.6,6.8C88.4,180.7,98.8,191,111.3,197.3L111.3,197.3z
		 M91.9,115.3c-3.7,0-7.3-0.2-10.7-0.7c-6.1,14.1-7.2,30.3-1.9,45.9l18.8-6.8C93.4,140.3,91.4,127.1,91.9,115.3L91.9,115.3z
		 M125,109.7c-7.1,2.3-14.1,3.9-20.9,4.8c-1.6,0.2-3.2,0.4-4.8,0.5c-0.5,11,1.3,23.5,5.7,36.1l30.9-11.3L125,109.7L125,109.7z
		 M155.1,94.7c-1.3,0.9-2.6,1.8-4,2.7c-5.7,3.7-12.1,7-19,9.8l11,30.1l30.9-11.3C169.2,113.5,162.5,102.8,155.1,94.7L155.1,94.7z
		 M168.7,82.7c-2.3,2.5-4.9,5-7.7,7.4c7.9,8.8,14.9,20.2,19.9,33.4l18.8-6.8C193.7,101.4,182.4,89.6,168.7,82.7L168.7,82.7z
		 M155.7,84.8c2-1.7,3.9-3.4,5.7-5.2c-5.7-2-11.8-3.3-17.9-3.6c3.2,1.7,6.3,3.8,9.3,6.3C153.8,83.1,154.7,83.9,155.7,84.8
		 M129.5,100.2c6.4-2.6,12.3-5.6,17.6-9c0.9-0.6,1.8-1.2,2.6-1.8c-0.5-0.5-1.1-0.9-1.6-1.3c-8.8-7.1-18.1-10.7-26.4-9.2L129.5,100.2
		L129.5,100.2z M100.1,107.5c1-0.1,2.1-0.2,3.1-0.3c6.2-0.8,12.7-2.2,19.3-4.4l-7.8-21.4c-7.3,4.3-12.1,12.9-14.3,24
		C100.3,106.1,100.2,106.8,100.1,107.5L100.1,107.5z M84.8,107.5c2.5,0.2,5.1,0.4,7.7,0.3c0.2-1.3,0.4-2.6,0.6-3.8
		c0.7-3.9,1.8-7.5,3.1-10.8C91.7,97.4,87.9,102.3,84.8,107.5L84.8,107.5z M184.5,77.8c-1.7-1.2-2.1-3.5-0.9-5.2
		c1.2-1.7,3.5-2.1,5.2-0.9c6.8,4.8,12.9,10.7,18,17.5c5,6.6,9.1,14,12,22.1c7.9,21.8,6.3,44.7-2.8,64.2
		c-9.1,19.5-25.6,35.5-47.4,43.4c-21.8,7.9-44.7,6.3-64.2-2.8C85,207,69,190.5,61.1,168.7c-7.9-21.8-6.3-44.7,2.8-64.2
		S89.5,69,111.3,61.1c7.5-2.7,15.1-4.3,22.6-4.9c7.8-0.6,15.5,0,23,1.5c2,0.4,3.3,2.4,2.9,4.4c-0.4,2-2.4,3.3-4.4,2.9
		c-6.8-1.4-13.9-1.9-21-1.4c-6.9,0.5-13.8,2-20.6,4.4C94,75.3,78.9,89.9,70.7,107.7c-8.3,17.8-9.8,38.7-2.6,58.5
		c7.2,19.8,21.8,34.9,39.6,43.2c17.8,8.3,38.7,9.8,58.5,2.6c19.8-7.2,34.9-21.8,43.2-39.6c8.3-17.8,9.8-38.7,2.6-58.5
		c-2.7-7.4-6.4-14.2-11-20.1C196.3,87.5,190.7,82.2,184.5,77.8L184.5,77.8z"/>
</g>
</svg>
